<svg width="31" height="29" viewBox="0 0 31 29" fill="none" xmlns="http://www.w3.org/2000/svg">
<g clip-path="url(#clip0_252_816)">
<path d="M0 2.01775C0.0671076 1.75042 0.126759 1.31097 0.287072 0.90814C0.659892 -0.0110417 1.45027 -0.278373 2.25183 0.314883C3.20253 1.01434 4.10848 1.78338 4.97715 2.58171C7.84041 5.22207 10.6813 7.88806 13.5259 10.5504C14.1858 11.1693 14.8793 11.7662 15.4646 12.4473C15.8299 12.8685 16.0238 13.4324 16.2997 13.9268C16.4078 14.1209 16.501 14.3443 16.6613 14.4945C18.7939 16.461 20.9376 18.4129 23.0701 20.3721C24.718 21.8882 26.3621 23.4079 27.9988 24.935C28.6811 25.5722 28.9159 26.3413 28.4909 27.2019C28.051 28.0991 27.3016 28.6704 26.2726 28.685C25.8737 28.6923 25.3965 28.4433 25.0871 28.1687C24.3974 27.5607 23.771 26.8833 23.1521 26.2058C20.1882 22.9612 17.1907 19.7459 13.9584 16.7466C13.8167 16.6148 13.5296 16.5306 13.3358 16.5672C12.4037 16.732 11.6693 16.3987 11.0094 15.8018C7.75839 12.8685 4.55586 9.89122 1.72243 6.56239C0.656164 5.30996 0.10439 3.82682 0 2.01775Z" fill="white"/>
<path d="M19.4682 15.6334C18.8232 15.0182 18.1968 14.4945 17.6674 13.8866C17.3878 13.568 17.2462 13.1139 17.1269 12.7001C17.0896 12.5719 17.3356 12.3668 17.4438 12.1947C17.5668 12.0006 17.7756 11.8065 17.7867 11.6015C17.921 9.60197 18.5585 7.80389 19.9789 6.32441C21.4217 4.82296 22.8981 3.3508 24.367 1.87498C24.5907 1.6516 24.8442 1.4392 25.1611 1.74681C25.4072 1.98485 25.3364 2.37669 25.0456 2.66965C23.6214 4.1235 22.2009 5.58467 20.7842 7.04584C20.6873 7.14471 20.6053 7.25458 20.5232 7.36444C20.2772 7.70501 20.2996 8.15911 20.5717 8.40447C20.8476 8.65349 21.2763 8.62053 21.6082 8.29827C22.5216 7.41205 23.4275 6.5185 24.3409 5.63228C24.9784 5.00972 25.616 4.39449 26.2572 3.7756C26.3131 3.72067 26.3691 3.6694 26.4287 3.62179C26.6599 3.43503 26.891 3.38742 27.1371 3.60348C27.3943 3.83053 27.4092 4.07223 27.1818 4.31393C26.6524 4.8669 26.123 5.41988 25.5787 5.9582C24.5646 6.95795 23.5356 7.94671 22.5141 8.94279C22.227 9.22477 21.9959 9.5214 22.2345 9.94254C22.488 10.382 23.0957 10.609 23.5916 10.1147C25.012 8.69377 26.4697 7.30951 27.9125 5.91426C28.0542 5.7751 28.2033 5.64326 28.3599 5.51509C28.5948 5.32466 28.8222 5.21846 29.0832 5.5041C29.3218 5.76411 29.2845 5.99116 29.0571 6.21821C28.4047 6.8664 27.7485 7.51092 27.0923 8.15545C26.1901 9.05266 25.2842 9.9462 24.3819 10.8434C24.2962 10.9313 24.2067 11.0155 24.1321 11.1144C23.9196 11.3854 23.9644 11.6527 24.1769 11.9018C24.4006 12.1618 24.6876 12.2167 24.9598 12.0043C25.4855 11.6015 26.0074 11.1986 26.4958 10.7519C27.5695 9.76676 28.6209 8.75603 29.6834 7.75628C29.8065 7.63909 29.9295 7.52557 30.06 7.41937C30.2949 7.22162 30.5223 7.06049 30.8205 7.36444C31.1113 7.65741 31.033 7.88812 30.7721 8.13714C29.6201 9.23942 28.4792 10.3527 27.316 11.4477C26.8575 11.8798 26.3616 12.268 25.8807 12.6745C24.5012 13.8536 22.8646 14.3956 21.0564 14.4432C20.6202 14.4542 20.3294 14.5714 20.0945 14.9193C19.9342 15.1537 19.718 15.3551 19.4682 15.6334Z" fill="white"/>
<path d="M15.3424 19.5921C14.5222 20.4527 13.7728 21.2803 12.975 22.064C10.8685 24.1404 8.73973 26.1949 6.62211 28.2603C6.54382 28.3335 6.45807 28.3994 6.37232 28.4617C5.23149 29.3113 4.20251 29.1575 3.38603 28.0112C2.8529 27.2642 2.84544 26.6416 3.49415 25.9495C4.87731 24.4773 6.27911 23.0235 7.71447 21.5989C8.95224 20.3685 10.2385 19.1783 11.5247 17.9955C11.7148 17.8233 12.0355 17.7574 12.3076 17.7062C12.5462 17.6622 12.8072 17.6878 13.0458 17.7318C13.2471 17.7684 13.4708 17.838 13.6162 17.9662C14.1866 18.4752 14.7309 19.0135 15.3424 19.5921Z" fill="white"/>
</g>
<defs>
<clipPath id="clip0_252_816">
<rect width="31" height="29" fill="white"/>
</clipPath>
</defs>
</svg>
