<svg width="27" height="29" viewBox="0 0 27 29" fill="none" xmlns="http://www.w3.org/2000/svg">
<g clip-path="url(#clip0_252_830)">
<path d="M21.1968 0.0205034C18.6429 3.88129 16.1201 7.69902 13.564 11.5619H20.0184C15.8317 17.4197 11.6927 23.2098 7.55367 29L7.49765 28.9713C9.05574 24.4872 10.6138 20.0031 12.1927 15.4575H6.87109C7.00595 15.1295 7.10761 14.8629 7.22172 14.6046C8.00387 12.8413 8.79433 11.0821 9.57234 9.31879C10.9064 6.30069 12.2362 3.27849 13.5661 0.256292C13.6346 0.104567 13.6947 0 13.9022 0C16.2632 0.00820136 18.6263 0.00615102 20.9873 0.00615102C21.0329 0.00615102 21.0806 0.012302 21.1968 0.0205034Z" fill="white"/>
<path d="M10.8438 27.8888C11.4039 27.1035 11.9558 26.3223 12.5242 25.5534C12.5782 25.4796 12.7587 25.4694 12.8769 25.4755C14.5242 25.578 16.1197 25.3381 17.6238 24.6779C21.3334 23.0479 23.6072 20.2533 24.1404 16.2654C24.6902 12.1483 23.1467 8.81446 19.8355 6.27614C19.7691 6.22489 19.7047 6.17568 19.6093 6.10187C20.1031 5.35759 20.5927 4.61947 21.0823 3.88135C25.8894 6.92405 28.8189 13.9014 25.7255 20.4706C22.5803 27.1506 15.4786 29.0124 10.8438 27.8888Z" fill="white"/>
<path d="M6.3292 26.1153C2.42256 23.7861 -0.888644 18.6828 0.21509 12.5338C1.32712 6.33566 6.2877 2.69836 10.5989 1.87207C10.5802 1.93973 10.5719 1.99919 10.5491 2.0525C10.13 3.01206 9.71302 3.97367 9.28148 4.92503C9.22754 5.04395 9.09268 5.14851 8.97028 5.20797C5.72961 6.78878 3.6238 9.2902 2.95783 12.8086C2.15492 17.0507 3.57401 20.5507 6.94953 23.2715C7.17982 23.456 7.22961 23.5893 7.12588 23.862C6.8458 24.596 6.60098 25.3444 6.33335 26.1132L6.3292 26.1153Z" fill="white"/>
</g>
<defs>
<clipPath id="clip0_252_830">
<rect width="27" height="29" fill="white"/>
</clipPath>
</defs>
</svg>
