<svg width="29" height="33" viewBox="0 0 29 33" fill="none" xmlns="http://www.w3.org/2000/svg">
<g clip-path="url(#clip0_252_857)">
<path d="M16.1894 12.046C12.0264 12.2519 9.09249 14.1947 7.7665 18.7561C7.72685 18.8993 7.6872 19.0426 7.65636 19.1858C7.48456 19.9334 7.8502 20.3318 8.6035 20.1662C8.72685 20.1393 8.8546 19.9334 8.89865 19.7857C9.30835 18.483 9.70923 17.1804 10.5506 16.0658C11.3656 14.987 12.3656 14.1947 13.6696 13.8724C14.6167 13.6396 15.5815 13.4829 16.5418 13.2994C16.9603 13.2188 17.2819 13.3486 17.4978 13.747C17.9912 14.6736 18.5022 15.5913 19 16.5134C19.1586 16.8044 19.1938 17.0148 18.7533 17.0864C15.9735 17.5251 13.9868 19.0739 12.7753 21.6389C12.4229 22.3865 12.1498 23.1743 11.881 23.9577C11.6608 24.5978 11.7621 24.8127 12.2511 24.9604C12.8898 25.1529 13.0396 25.0947 13.2158 24.4053C13.5815 22.9953 14.1189 21.6837 15.0352 20.5377C16.1894 19.0963 17.8017 18.6442 19.4802 18.3219C19.6123 18.295 19.8854 18.492 19.9339 18.6397C21.5594 23.4429 19.8458 28.6937 15.7577 31.3751C13.3083 32.9821 10.6167 33.2775 7.79733 32.7896C7.64755 32.7627 7.51099 32.6732 7.32597 32.5971C7.43169 32.5345 7.48896 32.4986 7.55064 32.4628C7.52421 32.4449 7.49777 32.4136 7.47134 32.4091C4.185 31.6392 2.17178 29.4189 0.889844 26.3973C-0.0264553 24.2442 -0.308394 21.9881 0.392047 19.732C0.823765 18.3488 1.41407 16.9969 2.1013 15.7256C3.42729 13.268 4.88984 10.8821 6.26429 8.45144C6.78852 7.52482 7.24227 6.55344 7.70923 5.59102C8.38764 4.18543 9.05725 2.77537 9.71804 1.36082C9.90306 0.962425 10.0352 0.541644 10.2379 0C10.37 0.259631 10.4537 0.411828 10.5286 0.564026C11.8194 3.18719 13.0881 5.82379 14.4009 8.43353C14.8898 9.40043 15.5022 10.3047 16.022 11.2537C16.1453 11.482 16.1365 11.7819 16.1894 12.0505H16.1938L16.1894 12.046Z" fill="white"/>
<path d="M28.9999 9.18554C28.6122 10.8552 28.1849 12.5025 27.2818 13.9932C25.8545 16.3567 23.7796 17.6594 21.11 18.0443C20.9294 18.0712 20.7488 18.0891 20.5726 18.1204C19.9426 18.2368 19.6166 18.0712 19.4404 17.4669C19.4008 17.3371 19.5417 17.055 19.6695 17.0013C19.9602 16.8715 20.2906 16.8267 20.6078 16.773C22.5153 16.4507 24.3391 15.9718 25.599 14.2797C26.621 12.9099 27.2069 11.3566 27.6254 9.71823C27.6298 9.70032 27.6298 9.68242 27.6342 9.66451C27.925 8.60808 27.8237 8.65284 29.0043 9.19001L28.9999 9.18554Z" fill="white"/>
<path d="M16.1841 12.0504C16.3955 11.9966 16.6026 11.925 16.814 11.8937C18.3603 11.6699 19.7832 11.1327 20.9022 10.0002C21.9947 8.8945 22.5982 7.48443 23.0431 6.00275C23.2193 5.42081 23.3735 4.83441 23.5674 4.25695C23.7392 3.74217 24.096 4.05999 24.3867 4.10475C24.6599 4.14504 24.8317 4.2659 24.7524 4.58373C24.2414 6.7324 23.6026 8.82735 22.1224 10.5284C20.8801 11.9519 19.2678 12.7129 17.4748 13.0978C17.3118 13.1336 17.0475 12.8651 16.8889 12.6815C16.6775 12.4398 16.6819 11.9698 16.1885 12.0369L16.1797 12.0414L16.1841 12.0504Z" fill="white"/>
</g>
<defs>
<clipPath id="clip0_252_857">
<rect width="29" height="33" fill="white"/>
</clipPath>
</defs>
</svg>
