<svg width="29" height="29" viewBox="0 0 29 29" fill="none" xmlns="http://www.w3.org/2000/svg">
<g clip-path="url(#clip0_252_861)">
<path d="M7.66458 28.9899C1.8294 28.9939 -1.70767 23.0949 0.858208 18.2702C1.62557 16.8264 2.86055 15.8099 3.98762 14.6876C8.17216 10.514 12.3487 6.33032 16.5432 2.16265C18.7314 -0.014052 21.8648 -0.591177 24.6345 0.628972C27.3643 1.82915 29.0908 4.54303 28.9969 7.55646C28.939 9.45358 28.2256 11.0911 26.8827 12.443C25.9754 13.3577 25.0622 14.2643 24.1509 15.1749C20.3101 19.0151 16.4633 22.8513 12.6305 26.7014C11.1537 28.1852 9.38715 28.952 7.66458 28.9879V28.9899ZM18.066 17.9207C18.3138 17.6571 18.5516 17.3915 18.8054 17.1399C20.9396 15.0231 23.0998 12.9343 25.2061 10.7896C27.1824 8.77661 27.1305 5.71526 25.1541 3.7722C23.2137 1.8631 20.1742 1.88706 18.1839 3.83611C17.0568 4.94043 15.9497 6.06872 14.8266 7.17704C13.5557 8.43313 12.2748 9.68324 11.0198 10.9154C13.4158 13.2958 15.7259 15.5923 18.068 17.9187L18.066 17.9207Z" fill="white"/>
<path d="M2.87159 13.2139C-0.73942 9.65127 -0.977223 5.07022 2.34203 1.97292C5.50741 -0.980597 10.2295 -0.56323 13.221 2.94744C9.78187 6.35827 6.34272 9.76909 2.87159 13.2139Z" fill="white"/>
<path d="M24.4577 17.4216C24.9932 16.8485 25.4948 16.3113 26.0264 15.7422C28.3245 17.6633 29.3876 20.0457 28.858 22.9832C28.3365 25.8788 26.5799 27.8318 23.7742 28.6606C20.5849 29.6032 17.9451 28.5348 15.7988 26.0825C16.3624 25.5693 16.9159 25.064 17.5214 24.5089C18.7124 25.9407 20.3111 26.8713 22.4174 26.5738C23.6523 26.398 24.6735 25.8149 25.4848 24.8643C27.3513 22.6777 26.9556 19.8919 24.4557 17.4216H24.4577Z" fill="white"/>
</g>
<defs>
<clipPath id="clip0_252_861">
<rect width="29" height="29" fill="white"/>
</clipPath>
</defs>
</svg>
