<svg width="33" height="28" viewBox="0 0 33 28" fill="none" xmlns="http://www.w3.org/2000/svg">
<g clip-path="url(#clip0_252_865)">
<path d="M11.504 17.9961C11.6064 18.3769 11.7028 18.7366 11.8023 19.0994C11.9619 19.6929 12.1216 20.2895 12.2874 20.8831C12.2964 20.9131 12.3416 20.946 12.3717 20.949C12.4651 20.958 12.5616 20.958 12.658 20.958C17.8225 20.958 22.9871 20.955 28.1516 20.955C28.6458 20.955 29.0676 21.2608 29.1821 21.6925C29.3388 22.2771 28.9109 22.8707 28.2932 22.9156C28.0642 22.9336 27.8322 22.9306 27.6032 22.9306C22.4115 22.9306 17.2229 22.9306 12.0313 22.9306C11.8354 22.9306 11.6395 22.9306 11.4467 22.9126C11.0399 22.8707 10.6814 22.5349 10.5669 22.1002C9.98231 19.9178 9.39776 17.7383 8.81622 15.5559C8.73185 15.2351 8.66858 14.9083 8.58119 14.5906C8.48779 14.2518 8.36124 13.9221 8.27084 13.5803C7.89721 12.1863 7.53262 10.7893 7.15899 9.39529C6.68593 7.62955 6.20683 5.86681 5.72774 4.10107C5.54696 3.43555 5.36617 2.77002 5.18839 2.1045C5.16127 2.00557 5.11608 1.97259 5.0076 1.97259C3.74509 1.97859 2.48258 1.97559 1.22007 1.97859C0.948891 1.97859 0.683734 1.9636 0.445695 1.80471C0.114249 1.57987 -0.0635272 1.16916 0.0208409 0.791435C0.111235 0.37773 0.433642 0.0749465 0.849457 0.020985C0.954917 0.00599572 1.06339 0 1.17186 0C2.71761 0 4.26335 0 5.8091 0C6.40269 0 6.77029 0.305782 6.91492 0.875375C7.12283 1.69979 7.3458 2.5182 7.56878 3.33662C7.6652 3.69636 7.67122 3.69336 8.04486 3.69336C12.8448 3.69336 17.6447 3.69336 22.4447 3.69336C25.5784 3.69336 28.712 3.69336 31.8457 3.69336C32.0717 3.69336 32.2977 3.70835 32.4996 3.82827C32.9063 4.06809 33.0811 4.45782 32.9696 4.93148C32.7436 5.88779 32.5056 6.84111 32.2736 7.79443C31.9964 8.92462 31.7192 10.0548 31.445 11.185C31.3516 11.5657 31.2823 11.9525 31.1858 12.3332C31.1165 12.603 31.0141 12.8668 30.9448 13.1366C30.77 13.8381 30.6073 14.5456 30.4356 15.2501C30.2879 15.8647 30.1312 16.4762 29.9896 17.0938C29.842 17.7413 29.4141 17.9662 28.8537 17.9961C28.8235 17.9961 28.7934 17.9961 28.7633 17.9961C23.1076 17.9961 17.4549 17.9961 11.7992 17.9961C11.7088 17.9961 11.6184 17.9961 11.504 17.9961ZM13.5228 9.86595C13.5107 9.72805 13.5047 9.61713 13.4926 9.50621C13.4263 8.88865 13.36 8.27109 13.2938 7.65353C13.2305 7.06295 13.1672 6.46938 13.0979 5.8788C13.0738 5.66295 13.0648 5.66595 12.8478 5.66595C11.3503 5.66595 9.85576 5.66595 8.35822 5.66595C8.31001 5.66595 8.25879 5.66595 8.19853 5.66595C8.20756 5.71692 8.21058 5.74689 8.21962 5.77388C8.34316 6.23555 8.4667 6.69722 8.59023 7.15889C8.81923 7.99829 9.05426 8.83469 9.27422 9.67709C9.31339 9.82398 9.3616 9.86595 9.51226 9.86595C10.7778 9.85996 12.0463 9.86296 13.3118 9.86296C13.3751 9.86296 13.4384 9.86296 13.5197 9.86296L13.5228 9.86595ZM26.7083 5.67195C26.5516 7.07195 26.3979 8.45696 26.2443 9.85096C26.2925 9.85696 26.3226 9.86296 26.3497 9.86296C27.4345 9.86296 28.5192 9.86295 29.6009 9.86595C29.6973 9.86595 29.7365 9.83597 29.7576 9.74004C29.9806 8.8227 30.2066 7.90835 30.4325 6.99101C30.541 6.55332 30.6465 6.11563 30.758 5.66895H26.7053L26.7083 5.67195ZM15.0474 5.67195C15.0474 5.69893 15.0474 5.71991 15.0474 5.7409C15.1197 6.39743 15.192 7.05096 15.2644 7.70749C15.3367 8.36702 15.409 9.02655 15.4783 9.68608C15.4964 9.85996 15.4903 9.86295 15.6621 9.86595C16.6896 9.86595 17.7171 9.86595 18.7445 9.86595C18.8832 9.86595 18.9073 9.82098 18.9073 9.69507C18.9042 8.45396 18.9073 7.20985 18.9073 5.96874C18.9073 5.86981 18.9073 5.77388 18.9073 5.66895H15.0474V5.67195ZM24.7407 5.66895C24.6624 5.66895 24.6111 5.66895 24.5599 5.66895C23.4059 5.66895 22.2518 5.66895 21.0978 5.66895C20.8779 5.66895 20.8839 5.66895 20.8839 5.88779C20.8839 7.17388 20.8839 8.45996 20.8839 9.74604C20.8839 9.82998 20.8989 9.86895 20.9954 9.86895C22.053 9.86595 23.1136 9.86595 24.1712 9.86895C24.2676 9.86895 24.3038 9.83298 24.3068 9.74304C24.3159 9.57216 24.3279 9.39829 24.349 9.22741C24.4695 8.15118 24.5901 7.07495 24.7106 5.99871C24.7226 5.89679 24.7317 5.79486 24.7437 5.67195L24.7407 5.66895ZM13.0979 16.0715C13.113 16.0625 13.1491 16.0295 13.1853 16.0266C13.4535 16.0116 13.7216 15.9996 13.9898 15.9936C14.1646 15.9906 14.1736 15.9846 14.1555 15.8077C14.1103 15.418 14.0591 15.0283 14.0229 14.6385C13.9597 13.994 13.9054 13.3495 13.8422 12.7079C13.815 12.4171 13.7729 12.1293 13.7397 11.8355H9.87384C10.2535 13.2835 10.6241 14.7045 10.9887 16.0895C11.0249 16.0685 11.0701 16.0206 11.1122 16.0206C11.7269 16.0116 12.3416 16.0056 12.9593 16.0086C13.0045 16.0086 13.0527 16.0505 13.1009 16.0745L13.0979 16.0715ZM15.7224 11.8295C15.876 13.2415 16.0297 14.6236 16.1804 16.0206C16.3159 16.0206 16.4756 16.0236 16.6353 16.0206C16.7197 16.0176 16.78 16.0266 16.7709 16.1375C16.78 16.0535 16.8131 16.0146 16.8975 16.0206C17.1687 16.0295 17.4399 16.0385 17.714 16.0385C18.0575 16.0385 18.398 16.0176 18.7385 16.0236C18.8681 16.0236 18.8952 15.9726 18.8982 15.8677C18.9012 15.6908 18.9103 15.5139 18.9103 15.337C18.9103 14.7854 18.9042 14.2338 18.9042 13.6822C18.9042 13.1006 18.9042 12.5191 18.9042 11.9345C18.9042 11.8565 18.8801 11.8325 18.7988 11.8325C17.8617 11.8325 16.9246 11.8325 15.9875 11.8325C15.9031 11.8325 15.8158 11.8325 15.7193 11.8325L15.7224 11.8295ZM24.0567 11.8385C24.0236 11.8355 24.0025 11.8295 23.9844 11.8295C23.43 11.8236 22.8756 11.8116 22.3242 11.8116C21.8812 11.8116 21.4413 11.8266 20.9984 11.8295C20.908 11.8295 20.8809 11.8595 20.8809 11.9525C20.8899 12.8308 20.8959 13.7092 20.8989 14.5906C20.8989 15.0103 20.8989 15.427 20.902 15.8467C20.902 15.9096 20.8779 15.9966 20.9863 16.0026C21.1551 16.0116 21.3208 16.0266 21.4895 16.0236C21.9144 16.0236 22.3392 16.0086 22.7611 16.0026C23.0051 15.9996 23.2462 16.0026 23.4903 15.9936C23.5234 15.9936 23.5806 15.9666 23.5867 15.9426C23.6198 15.8287 23.65 15.7118 23.665 15.5949C23.6861 15.427 23.6831 15.2591 23.7012 15.0912C23.7946 14.2488 23.894 13.4064 23.9874 12.564C24.0145 12.3242 24.0326 12.0874 24.0537 11.8415L24.0567 11.8385ZM25.5934 16.0266C26.1509 16.0266 26.6691 16.0266 27.1874 16.0266C27.4345 16.0266 27.6815 16.0236 27.9286 16.0206C28.2149 16.0176 28.2239 16.0056 28.2781 15.7268C28.3233 15.4989 28.3414 15.2531 28.4409 15.0492C28.5252 14.8784 28.5584 14.7045 28.6006 14.5276C28.8054 13.6792 29.0103 12.8278 29.2122 11.9794C29.2213 11.9375 29.2303 11.8925 29.2424 11.8385C29.1881 11.8385 29.155 11.8325 29.1218 11.8325C28.5915 11.8325 28.0642 11.8325 27.5339 11.8325C27.097 11.8325 26.6571 11.8355 26.2202 11.8325C26.0906 11.8325 26.0273 11.8655 26.0153 12.0034C25.961 12.564 25.8947 13.1246 25.8315 13.6852C25.7893 14.066 25.7471 14.4467 25.7079 14.8304C25.6688 15.2141 25.6356 15.6009 25.5964 16.0296L25.5934 16.0266Z" fill="white"/>
<path d="M15.4814 25.9913C15.4814 27.0856 14.5684 27.9969 13.4686 27.9939C12.3417 27.9939 11.4197 27.0796 11.4378 25.9374C11.4558 24.8192 12.3688 23.9708 13.4747 23.9678C14.5805 23.9648 15.4814 24.8791 15.4814 25.9913Z" fill="white"/>
<path d="M27.9764 25.9404C28.0095 27.0167 27.1206 27.952 26.06 27.997C24.9602 28.0449 23.9629 27.1486 23.9418 26.0154C23.9207 24.9242 24.8096 23.9978 25.9244 23.9648C27.0212 23.9349 27.9462 24.8222 27.9794 25.9374L27.9764 25.9404Z" fill="white"/>
</g>
<defs>
<clipPath id="clip0_252_865">
<rect width="33" height="28" fill="white"/>
</clipPath>
</defs>
</svg>
