<svg width="30" height="30" viewBox="0 0 30 30" fill="none" xmlns="http://www.w3.org/2000/svg">
<path d="M29.2111 16.0363C28.8891 17.3341 28.5403 18.0478 27.7816 19.0104C27.4479 19.4343 27.0014 19.7047 26.4305 19.643C25.1169 19.5014 23.8055 19.3402 22.4909 19.2105C21.392 19.1023 20.2887 19.0266 19.1362 18.9325C19.1104 19.0991 19.0911 19.1856 19.0846 19.2721C18.9097 21.6438 18.7477 24.0155 18.5545 26.3851C18.4998 27.0545 18.5202 27.7661 17.9331 28.2766C16.7795 29.2802 15.4391 29.729 13.9291 29.6436C13.209 29.6025 12.5641 29.0639 12.4922 28.4788C12.2335 26.3515 11.9803 24.2242 11.7442 22.0948C11.6089 20.8814 11.5102 19.6647 11.3911 18.4058C10.847 18.3691 10.334 18.3399 9.82211 18.2988C7.57811 18.1203 5.33197 17.9548 3.09226 17.7385C2.73382 17.7039 2.33568 17.5017 2.06309 17.2551C0.945923 16.2428 0.638997 14.8726 0.617534 13.4418C0.601436 12.3689 1.1466 11.7784 2.16934 11.6595C4.86729 11.3458 7.56631 11.0463 10.2686 10.7802C10.7515 10.7326 10.8792 10.6115 10.8727 10.113C10.8438 8.04298 10.8041 5.96868 10.8974 3.90303C10.9865 1.9358 11.8214 1.10737 13.737 0.784009C14.8843 0.590422 16.039 0.609889 17.1283 0.990574C18.0104 1.29772 18.8528 1.75302 19.6599 2.23321C20.146 2.52305 20.4293 3.04 20.3564 3.66186C20.2072 4.94883 20.0323 6.23364 19.9003 7.5217C19.8123 8.38905 19.7801 9.2629 19.7264 10.0848C20.5828 10.0848 21.349 10.0697 22.1153 10.0881C23.6682 10.1238 25.2232 10.1421 26.7739 10.2362C27.772 10.2968 28.5253 10.8224 28.9396 11.7687C29.3388 12.6772 29.4547 13.6386 29.3978 14.6184C29.371 15.0824 29.2744 15.5745 29.21 16.0363" fill="#FFD600"/>
</svg>
