<svg width="28" height="27" viewBox="0 0 28 27" fill="none" xmlns="http://www.w3.org/2000/svg">
<g clip-path="url(#clip0_26_33)">
<path d="M17.2473 26.8744C16.7547 26.9207 16.3453 26.9934 15.9359 26.9934C10.895 26.9934 5.85412 26.9934 0.819621 26.9802C-0.037587 26.9802 -0.101558 26.8414 0.109546 25.9557C0.966754 22.3403 1.79837 18.7248 2.67477 15.116C2.73874 14.8649 3.08419 14.5013 3.30169 14.5013C6.80728 14.4551 10.3129 14.4419 13.8185 14.4749C14.0616 14.4749 14.4582 14.8516 14.5222 15.116C15.4433 18.9628 16.3197 22.8228 17.2473 26.8678V26.8744Z" fill="white"/>
<path d="M14.6933 8.1166C14.1048 7.96458 13.5354 7.89849 13.4779 8.86348C13.4715 9.00228 13.0173 9.21378 12.7678 9.21378C10.1322 9.24022 7.49659 9.23361 4.86739 9.22039C4.27886 9.22039 4.02298 8.86348 4.03577 8.27523C4.03577 7.86544 4.07416 7.45565 4.02298 7.05246C3.99099 6.78147 3.88864 6.47743 3.72232 6.27915C2.79474 5.22823 2.8843 4.39543 3.99099 3.57584C4.37482 3.29163 4.70107 2.90167 4.99534 2.5117C5.80137 1.44757 6.89527 0.932023 8.14909 0.912194C9.37093 0.885756 10.5096 0.786613 11.7251 0.39665C13.9129 -0.303962 16.1646 -0.112285 18.2373 1.06421C19.312 1.67229 20.3611 2.32664 21.3846 3.01403C22.3378 3.64855 22.293 4.75234 21.2119 5.24145C20.2843 5.66446 19.248 5.80987 18.2693 6.12052C17.9622 6.21305 17.5208 6.35846 17.4376 6.5964C16.9579 7.93814 15.9215 8.1166 14.6997 8.10999L14.6933 8.1166Z" fill="white"/>
<path d="M28.0009 26.8811C27.5212 26.9273 27.1629 26.9868 26.8111 26.9868C24.3098 26.9934 21.8022 26.9802 19.3009 27C18.6164 27 18.271 26.7819 18.1239 26.0284C17.7976 24.3826 17.3562 22.7567 16.9596 21.1241C16.934 21.0184 16.8956 20.9126 16.8892 20.8069C16.7677 19.4718 16.5438 18.7249 18.3861 18.7976C20.6507 18.8835 22.9153 18.8108 25.1798 18.8769C25.4741 18.8835 25.9347 19.2272 26.0179 19.5114C26.7087 21.9041 27.3229 24.3166 28.0073 26.8811H28.0009Z" fill="white"/>
<path d="M1.8814 10.2249C2.70662 10.2249 3.38471 10.2249 4.0628 10.2249C7.30612 10.2249 10.5494 10.2117 13.7864 10.2117C14.023 10.2117 14.2597 10.2117 14.4964 10.2381C15.2577 10.324 15.3664 10.5289 15.0466 11.2229C14.8739 11.5931 14.6052 11.9566 14.5796 12.3333C14.5156 13.2388 13.9847 13.3512 13.281 13.3446C10.0888 13.3314 6.9031 13.3314 3.71096 13.3446C3.13522 13.3446 2.80258 13.1794 2.66184 12.5316C2.50831 11.8244 2.20125 11.1502 1.875 10.2315L1.8814 10.2249Z" fill="white"/>
<path d="M16.2871 15.3474H26.5928C26.3497 16.0282 26.2026 16.6099 25.9339 17.1188C25.8188 17.3435 25.4605 17.5682 25.211 17.5682C22.761 17.6013 20.3173 17.5815 17.8672 17.5881C17.2851 17.5881 16.9332 17.3435 16.7797 16.7487C16.6709 16.3124 16.4854 15.896 16.2871 15.3408V15.3474Z" fill="white"/>
</g>
<defs>
<clipPath id="clip0_26_33">
<rect width="28" height="27" fill="white"/>
</clipPath>
</defs>
</svg>
