<svg width="29" height="29" viewBox="0 0 29 29" fill="none" xmlns="http://www.w3.org/2000/svg">
<g clip-path="url(#clip0_422_863)">
<path fill-rule="evenodd" clip-rule="evenodd" d="M16.4649 24.44C16.5092 25.6129 16.1995 26.6222 15.4958 27.3259C15.2612 27.5605 15.0319 27.7897 14.796 28.0256C12.7008 30.1207 7.90728 28.7253 4.09093 24.9091C0.274574 21.093 -1.12087 16.2996 0.974306 14.2045C1.20889 13.97 1.43811 13.7408 1.67404 13.5048C2.37779 12.8011 3.38717 12.4915 4.5601 12.5357C3.91667 12.6738 3.35634 12.9579 2.91667 13.3976C0.918006 15.3948 2.13919 19.8558 5.64187 23.3583C9.14455 26.8608 13.6057 28.0819 15.603 26.0833C16.044 25.6423 16.3282 25.0834 16.4649 24.44ZM13.9529 24.2349C10.166 23.125 5.87377 18.833 4.76519 15.0477C4.1231 16.502 5.60031 19.3437 7.62846 21.3731C9.65661 23.4012 12.4984 24.877 13.9542 24.2362L13.9529 24.2349ZM5.84428 13.8306C5.27457 16.7634 12.2357 23.7242 15.1687 23.1559L15.7156 22.609C11.8671 21.5393 7.45956 17.132 6.3912 13.2837L5.84428 13.8306ZM7.50112 12.1738C6.93141 15.1066 13.8925 22.0674 16.8255 21.4991L17.3724 20.9522C13.5239 19.8826 9.1164 15.4753 8.04803 11.6269L7.50112 12.1738ZM9.15795 10.517C8.58825 13.4499 15.5507 20.4107 18.4823 19.8423L19.0293 19.2955C15.1807 18.2271 10.7732 13.8185 9.70487 9.97015L9.15795 10.517ZM10.8148 8.86028C10.2451 11.7931 17.2062 18.7539 20.1392 18.1856L20.6861 17.6387C16.8376 16.5704 12.4301 12.1617 11.3604 8.31339L10.8134 8.86028H10.8148ZM12.4716 7.20352C11.9019 10.1364 18.8644 17.0972 21.796 16.5288L22.2075 16.1173C20.3617 15.5061 18.347 14.2448 16.5507 12.4486C14.7545 10.6524 13.4944 8.63911 12.8818 6.79201L12.4703 7.20218L12.4716 7.20352ZM28.0279 14.793C30.1231 12.6979 28.7263 7.90456 24.9113 4.08839C21.0936 0.27489 16.3 -1.12049 14.2049 0.974589C13.9475 1.23195 13.6901 1.48931 13.4328 1.74667C12.666 2.51473 12.3671 3.64337 12.4837 4.95564L3.76653 13.6711C2.07216 15.3653 3.28798 19.3263 6.47967 22.5192C9.6727 25.7107 13.6338 26.9265 15.3282 25.2322L24.0454 16.5154C25.3563 16.632 26.4864 16.3345 27.2545 15.5664C27.5118 15.309 27.7692 15.0517 28.0266 14.7943L28.0279 14.793ZM22.5413 6.60301C23.5212 7.58286 23.9703 8.72624 23.5427 9.15384C23.1151 9.58143 21.973 9.13373 20.9917 8.15254C20.0105 7.17135 19.5628 6.03066 19.9904 5.60172C20.418 5.17413 21.5601 5.62183 22.5413 6.60301Z" fill="white"/>
</g>
<defs>
<clipPath id="clip0_422_863">
<rect width="29" height="29" fill="white"/>
</clipPath>
</defs>
</svg>
