<svg width="61" height="35" viewBox="0 0 61 35" fill="none" xmlns="http://www.w3.org/2000/svg">
<path d="M60.8601 25.0196C60.8601 26.2135 60.8387 27.4073 60.8601 28.6012C60.8974 30.3642 59.8291 31.2628 57.9861 31.8233C56.9712 32.1314 55.828 32.2769 54.7436 32.2897C51.2554 32.3368 47.7618 32.2726 44.2735 32.2726C33.2105 32.2683 22.1528 32.2683 11.0897 32.2726C9.3109 32.2726 7.53205 32.3068 5.75321 32.3068C3.98504 32.3068 2.38782 31.849 1.1859 30.822C0.678419 30.3898 0.315171 29.7009 0.267094 29.1104C0.090812 26.8725 0 24.6217 0 22.3795C0 19.4911 1.20192 16.8895 3.60577 14.7542C5.26175 13.2823 6.13782 11.6562 6.55449 9.73494C7.11539 7.15468 8.03953 4.64717 9.58333 2.30654C10.1763 1.40794 11.0256 0.980037 12.2489 0.860224C19.1987 0.175579 26.1752 -0.123953 33.1624 0.0472079C37.8045 0.162742 42.4412 0.487948 47.078 0.727574C48.0983 0.778923 49.1133 0.87734 50.1336 0.945805C51.0844 1.00999 51.7094 1.40794 52.1528 2.08403C53.5577 4.23638 54.359 6.54278 54.9786 8.90053C55.2457 9.91038 55.4648 10.9288 55.6838 11.9472C55.9081 12.9699 56.4423 13.8685 57.1848 14.7115C57.9808 15.6143 58.7286 16.5386 59.4979 17.4586C60.5449 18.7124 61.0257 20.0902 60.9989 21.5964C60.9776 22.7389 60.9989 23.8771 60.9989 25.0196C60.9562 25.0196 60.9081 25.0196 60.8654 25.0196H60.8601ZM30.4541 13.1239C30.4541 13.1239 30.4541 13.1325 30.4541 13.1368C37.2383 13.1368 44.0278 13.1368 50.812 13.1368C51.2554 13.1368 51.7041 13.1154 52.1368 13.0469C53.093 12.8971 53.5737 12.3452 53.4402 11.5706C53.3547 11.0614 53.2479 10.548 53.109 10.0473C52.5 7.79654 51.7361 5.59284 50.3526 3.55174C49.8878 2.86709 49.2521 2.48626 48.2532 2.43491C43.9477 2.2124 39.6528 1.8658 35.3419 1.74598C27.9754 1.54487 20.6197 1.78022 13.2906 2.43919C12.2489 2.53333 11.4209 2.87565 10.812 3.54746C10.4861 3.9069 10.1603 4.27489 9.9359 4.67712C8.67522 6.91506 8.07692 9.31132 7.46795 11.6947C7.31304 12.3066 7.94872 12.9271 8.76603 13.0341C9.2468 13.0983 9.73825 13.1197 10.2297 13.1197C16.9712 13.1239 23.7126 13.1197 30.4541 13.1197V13.1239ZM30.5556 21.9473C26.5972 21.9473 22.6336 21.9473 18.6752 21.9473C18.2959 21.9473 17.9167 21.9473 17.5427 21.9986C16.7949 22.0971 16.5064 22.3923 16.5278 22.9914C16.5545 23.9627 17.4573 24.8485 18.6859 25.0368C19.2254 25.1181 19.7917 25.1437 20.3419 25.1437C23.7447 25.1523 27.1474 25.1437 30.5556 25.1437C34.2468 25.1437 37.9434 25.1437 41.6346 25.1309C43.0235 25.1223 44.1667 24.3436 44.3857 23.3209C44.5833 22.4094 44.1934 22.0158 43.0395 21.9644C42.7511 21.9516 42.4626 21.9516 42.1742 21.9516C38.3013 21.9516 34.4338 21.9516 30.5609 21.9516L30.5556 21.9473ZM10.6891 23.4664C10.8227 23.4664 10.9562 23.4664 11.0897 23.4664C12.7778 23.415 13.2265 22.8716 12.6282 21.5964C12.6229 21.5793 12.6122 21.5622 12.6015 21.5494C11.8056 20.0517 10.5395 18.8921 8.72329 18.1475C7.22757 17.5356 5.6891 17.4971 4.16133 18.0791C2.49466 18.7081 2.21154 19.7265 3.48825 20.792C5.44338 22.4266 7.87927 23.2909 10.6891 23.4664ZM50.3045 23.4749C53.1304 23.3209 55.5235 22.4266 57.5107 20.8219C57.6977 20.6721 57.8472 20.4882 57.9861 20.3084C58.5417 19.5896 58.4402 19.0204 57.6282 18.4684C56.6987 17.8352 55.593 17.5955 54.3964 17.6897C51.8162 17.8951 49.0118 19.8292 48.3387 21.836C47.9754 22.9229 48.3814 23.3808 49.7703 23.4578C49.9466 23.4664 50.1229 23.4706 50.3045 23.4792V23.4749Z" fill="white"/>
<path d="M60.1069 31.4515C60.9242 33.2615 59.53 34.9346 57.217 34.9859C56.3089 35.0073 55.3954 35.0031 54.4819 34.9817C53.3601 34.9517 52.1582 34.22 51.795 33.377C51.624 32.9791 51.795 32.8464 52.3238 32.8336C53.873 32.7993 55.4275 32.778 56.9713 32.6496C58.1304 32.5512 59.1721 32.1275 60.1069 31.4557V31.4515Z" fill="white"/>
<path d="M0.592951 31.1944C2.72436 32.8932 5.46475 32.8418 8.32265 32.906C7.79381 33.719 7.27564 34.2924 6.3515 34.5278C5.03205 34.8658 3.68056 34.8829 2.35577 34.5449C0.753207 34.1341 -0.208331 32.4139 0.587609 31.1944H0.592951Z" fill="white"/>
</svg>
