<svg width="31" height="28" viewBox="0 0 31 28" fill="none" xmlns="http://www.w3.org/2000/svg">
<g clip-path="url(#clip0_252_869)">
<path d="M30.0707 19.8895C29.3782 19.8895 28.6839 19.8685 27.995 19.9036C27.7967 19.9141 27.5505 20.0423 27.423 20.195C27.0032 20.7041 26.6101 21.2378 26.2488 21.789C26.1408 21.954 26.1036 22.2226 26.1478 22.4174C26.2789 22.9722 26.4613 23.5146 26.6402 24.0571C26.7128 24.2783 26.7039 24.4275 26.4879 24.5767C25.7742 25.07 25.0799 25.5931 24.3626 26.0811C24.2564 26.1531 24.0226 26.1514 23.911 26.0811C23.3992 25.7616 22.9228 25.3895 22.4074 25.0735C22.2463 24.9752 21.9912 24.9278 21.8124 24.9752C21.1589 25.1525 20.5124 25.3631 19.8802 25.6019C19.7066 25.6686 19.526 25.8512 19.4534 26.025C19.2267 26.5639 19.0425 27.1204 18.8601 27.6769C18.7857 27.9033 18.683 28.0122 18.4244 27.9964C18.0295 27.9736 17.6328 27.9911 17.1989 27.9911V20.446C19.2639 20.353 20.9924 19.5578 22.2764 17.9234C23.215 16.7279 23.6808 15.3499 23.6277 13.8401C23.5037 10.2344 20.663 7.63099 17.1953 7.53268V0.00515534C17.6664 0.00515534 18.134 -0.010644 18.598 0.0191992C18.6918 0.0244657 18.8105 0.192992 18.8548 0.308854C19.0637 0.854811 19.232 1.41832 19.4569 1.95726C19.5295 2.13105 19.7049 2.31889 19.8784 2.38384C20.5107 2.62434 21.1571 2.835 21.8106 3.01406C21.9912 3.06321 22.248 3.02284 22.4092 2.92453C22.9246 2.61205 23.4169 2.26095 23.904 1.90635C24.0935 1.76942 24.2245 1.77995 24.4069 1.91688C25.0905 2.42597 25.783 2.92628 26.4826 3.41431C26.6862 3.5565 26.7323 3.69168 26.6526 3.92691C26.4613 4.49569 26.2824 5.06973 26.1337 5.64904C26.0929 5.80704 26.1248 6.03174 26.2151 6.16516C26.6101 6.74622 27.0263 7.31675 27.4673 7.86622C27.5753 8.00139 27.7984 8.10321 27.9755 8.1155C28.5635 8.15763 29.155 8.16114 29.7448 8.15939C29.9803 8.15939 30.1167 8.20854 30.1929 8.46133C30.4426 9.28641 30.7312 10.101 30.9756 10.9278C31.0111 11.0472 30.9402 11.2648 30.8428 11.3474C30.3788 11.7318 29.8723 12.0653 29.4154 12.4568C29.2631 12.5867 29.1409 12.8325 29.132 13.0309C29.1019 13.7313 29.109 14.4335 29.1426 15.1339C29.1497 15.2867 29.2914 15.4675 29.4242 15.5746C29.8794 15.945 30.3646 16.2785 30.8216 16.6472C30.9207 16.7262 31.0217 16.9193 30.9916 17.0211C30.7082 17.9585 30.3965 18.8854 30.0671 19.8931L30.0707 19.8895Z" fill="white"/>
<path d="M15.8146 6.02123V9.31979H18.3065V10.6943H14.4049C14.4049 10.4328 14.4049 10.1624 14.4049 9.89208C14.4049 9.20393 14.389 8.51753 14.412 7.82938C14.4244 7.49408 14.304 7.40982 13.9799 7.41157C11.9432 7.42386 9.90651 7.42386 7.8716 7.41157C7.57053 7.40982 7.43947 7.53446 7.29602 7.76969C6.66376 8.80367 5.2983 9.0512 4.33133 8.32794C3.38383 7.62048 3.24569 6.25822 4.03379 5.37521C4.94941 4.34825 6.60709 4.49922 7.31727 5.69646C7.46781 5.94925 7.62189 6.03001 7.90702 6.02825C10.3563 6.01772 12.8057 6.02299 15.255 6.02299C15.4268 6.02299 15.5986 6.02299 15.8164 6.02299L15.8146 6.02123ZM5.55865 7.3396C5.88628 7.34136 6.18027 7.05872 6.18913 6.72869C6.19798 6.39515 5.92702 6.109 5.58875 6.09496C5.22923 6.08092 4.93347 6.36355 4.93879 6.71991C4.9441 7.05345 5.22569 7.33609 5.55865 7.3396Z" fill="white"/>
<path d="M14.5096 20.4409V16.7192H18.2907V18.0692H15.9193C15.9193 18.3712 15.9193 18.6134 15.9193 18.8557C15.9193 19.7334 15.9123 20.6112 15.9247 21.4889C15.9282 21.7522 15.845 21.8505 15.5704 21.8453C14.9364 21.8295 14.3006 21.8505 13.6666 21.8347C13.4027 21.8277 13.2469 21.8997 13.1052 22.1419C12.6058 22.9916 11.6724 23.3444 10.7497 23.0706C9.90317 22.8196 9.29571 22.0015 9.3028 21.1238C9.30988 20.2162 9.91911 19.4385 10.8188 19.1875C11.7149 18.9382 12.6394 19.3138 13.1176 20.1547C13.2486 20.3847 13.3921 20.4619 13.64 20.4461C13.9021 20.4303 14.1678 20.4426 14.5061 20.4426L14.5096 20.4409ZM11.3731 21.7575C11.7043 21.7452 11.9753 21.4555 11.97 21.1202C11.9646 20.7762 11.6972 20.5216 11.3448 20.5234C10.9853 20.5251 10.6966 20.8253 10.7196 21.1712C10.7409 21.4959 11.0455 21.7698 11.3731 21.7575Z" fill="white"/>
<path d="M10.38 12.4376C9.94786 12.4376 9.54229 12.4376 9.13496 12.4376C7.58708 12.4376 6.03921 12.4499 4.4931 12.4306C4.15484 12.4271 3.96888 12.5271 3.79178 12.815C3.32068 13.5857 2.2563 13.9368 1.34422 13.67C0.619873 13.4575 -0.00352703 12.5605 1.50206e-05 11.7319C0.00355707 10.8384 0.587995 10.0624 1.4558 9.80086C2.35193 9.53052 3.30297 9.87635 3.77938 10.6979C3.93877 10.9718 4.11233 11.0473 4.40809 11.0437C5.77887 11.0315 7.14964 11.0227 8.52041 11.0473C8.9242 11.0543 9.03578 10.9261 9.0039 10.5487C8.97379 10.1871 8.99682 9.82017 8.99682 9.41992H10.3782V12.4358L10.38 12.4376ZM2.66186 11.7898C2.6902 11.451 2.44226 11.1526 2.10753 11.1227C1.74802 11.0894 1.43632 11.3527 1.41683 11.7038C1.39912 12.0286 1.66832 12.3305 1.9995 12.3586C2.32891 12.3849 2.6353 12.1234 2.66186 11.7898Z" fill="white"/>
<path d="M15.6844 26.592V27.9648H12.5887V25.9811C11.6305 25.9811 10.722 25.9723 9.81524 25.9952C9.72138 25.9969 9.61334 26.1777 9.54073 26.2936C9.03776 27.1046 8.12214 27.4715 7.21538 27.2187C6.33164 26.973 5.73126 26.176 5.73834 25.2614C5.7472 24.3397 6.3458 23.5638 7.2384 23.318C8.13277 23.0723 9.06433 23.4462 9.53896 24.2818C9.67002 24.51 9.80993 24.5785 10.0579 24.5767C11.3401 24.5662 12.6223 24.5715 13.9895 24.5715C13.9895 25.0981 14.0143 25.6037 13.9825 26.1057C13.9577 26.4884 14.071 26.6359 14.4713 26.6008C14.8627 26.5674 15.2594 26.5938 15.6826 26.5938L15.6844 26.592ZM7.81752 24.6557C7.47749 24.6329 7.18527 24.8822 7.15516 25.221C7.12683 25.558 7.37477 25.8565 7.70949 25.8898C8.05838 25.9249 8.38071 25.6511 8.40019 25.3052C8.4179 24.9805 8.14694 24.6785 7.81575 24.6557H7.81752Z" fill="white"/>
<path d="M9.96919 15.0479V16.4347H8.39475V18.7994H6.50329C6.34036 18.7994 6.17742 18.8117 6.01626 18.7976C5.55048 18.7537 5.22107 18.8433 4.93948 19.3085C4.48787 20.0528 3.50672 20.3003 2.66725 20.0159C1.82248 19.7298 1.28054 18.9644 1.29117 18.0726C1.30357 17.1931 1.88446 16.4225 2.72747 16.1697C3.57225 15.9169 4.53923 16.2083 4.98375 16.9509C5.22284 17.3494 5.49912 17.4178 5.91 17.4108C6.96553 17.3897 6.96907 17.4055 6.9673 16.347C6.9673 16.0117 6.92834 15.6764 6.94782 15.3428C6.9549 15.241 7.09836 15.0637 7.18337 15.062C8.1043 15.0409 9.02523 15.0497 9.96919 15.0497V15.0479ZM3.95833 18.106C3.95833 17.7777 3.67497 17.4915 3.34202 17.4828C3.00729 17.4757 2.71684 17.7478 2.70445 18.0796C2.69028 18.436 2.97718 18.7239 3.3367 18.7186C3.67143 18.7151 3.95656 18.4342 3.95833 18.1042V18.106Z" fill="white"/>
<path d="M20.5376 14.6933C19.4307 14.6933 18.3876 14.6898 17.3427 14.6933C16.5794 14.6969 15.8143 14.7004 15.051 14.7337C14.9111 14.7407 14.7163 14.8566 14.6507 14.9795C14.0397 16.1118 12.8018 16.1715 12.0155 15.8625C11.1158 15.5079 10.6004 14.4072 10.8962 13.4048C11.1069 12.6903 11.5993 12.2006 12.3626 12.0303C13.1489 11.853 13.9229 11.9934 14.3479 12.6535C14.8066 13.368 15.4034 13.2995 16.0605 13.2942C17.2949 13.2854 18.5311 13.289 19.7655 13.2942C20.0081 13.2942 20.3959 13.231 20.4632 13.3434C20.5872 13.5558 20.5288 13.8735 20.5394 14.1474C20.5465 14.3054 20.5394 14.4651 20.5394 14.6916L20.5376 14.6933ZM12.228 13.9964C12.2298 14.3142 12.5397 14.6302 12.8425 14.6249C13.1507 14.6196 13.4535 14.3019 13.45 13.9894C13.4464 13.6611 13.1471 13.3539 12.8408 13.3662C12.5291 13.3785 12.2244 13.691 12.228 13.9964Z" fill="white"/>
<path d="M15.7106 1.46943C15.7106 1.89426 15.7319 2.27344 15.6947 2.64736C15.6858 2.73162 15.4821 2.85626 15.3653 2.85977C14.6427 2.87908 13.9201 2.87908 13.1975 2.8668C12.9478 2.86328 12.8061 2.94228 12.6751 3.16523C12.181 4.00435 11.2777 4.36422 10.3674 4.1167C9.49254 3.87971 8.86737 3.06517 8.86914 2.16636C8.86914 1.26228 9.489 0.454758 10.3657 0.212501C11.2636 -0.0367785 12.1951 0.333629 12.6715 1.16924C12.8132 1.41676 12.9726 1.47821 13.2347 1.47294C14.0423 1.46065 14.8517 1.46767 15.7142 1.46767L15.7106 1.46943ZM10.9147 2.78955C11.2476 2.7878 11.5239 2.50692 11.5275 2.16987C11.5292 1.82579 11.2671 1.55194 10.9253 1.54667C10.5764 1.5414 10.2665 1.8451 10.2771 2.18216C10.2877 2.50341 10.5906 2.79131 10.9129 2.78955H10.9147Z" fill="white"/>
</g>
<defs>
<clipPath id="clip0_252_869">
<rect width="31" height="28" fill="white"/>
</clipPath>
</defs>
</svg>
