<svg width="19" height="19" viewBox="0 0 19 19" fill="none" xmlns="http://www.w3.org/2000/svg">
<g clip-path="url(#clip0_257_826)">
<path d="M1.70834 1.92276L0.172049 4.55632C0.172049 4.55632 -0.393213 5.46821 0.525436 6.98023C0.525436 6.98023 2.58634 10.3449 5.79418 13.4492C8.96371 16.5519 12.349 18.5121 12.349 18.5121C13.8845 19.3944 14.7876 18.8114 14.7876 18.8114L17.395 17.2222C17.8562 16.6766 18.0595 16.089 18.0595 16.089C18.3879 15.3275 17.7687 14.9113 17.7687 14.9113C16.5654 13.7602 13.7485 12.8989 13.7485 12.8989C12.693 12.5833 12.2505 13.6464 12.2505 13.6464L11.9784 14.1763C11.414 15.1482 10.3882 14.2862 10.3882 14.2862L7.55329 11.5973L4.80751 8.84297C4.80751 8.84297 3.92014 7.83912 4.88257 7.25535L5.40795 6.97322C5.40795 6.97322 6.46421 6.5087 6.12489 5.46431C6.12489 5.46431 5.19921 2.67565 4.01865 1.50189C4.01865 1.50189 3.58864 0.893184 2.83105 1.2369C2.83105 1.2369 2.24702 1.45279 1.70991 1.92432L1.70834 1.92276Z" fill="#FFD600"/>
<path d="M14.0918 9.50469C13.9292 9.51248 13.7837 9.39635 13.7595 9.23268C13.5211 7.65909 12.7932 6.52897 11.597 5.87351C10.7033 5.38405 9.88321 5.35365 9.87461 5.35365C9.69713 5.3482 9.55718 5.20089 9.56266 5.02319C9.56813 4.84549 9.71746 4.70754 9.89415 4.71221C9.93402 4.71299 10.8785 4.74806 11.9066 5.31079C12.8573 5.8322 14.0605 6.91789 14.3967 9.13682C14.4225 9.31218 14.3021 9.47585 14.1262 9.50235C14.1152 9.50391 14.1035 9.50547 14.0926 9.50547L14.0918 9.50469Z" fill="#FFD600"/>
<path d="M16.4553 9.94192C16.2926 9.94893 16.1472 9.8328 16.1222 9.66913C15.7086 6.9358 14.4397 4.97018 12.3507 3.82603C10.7925 2.9726 9.35235 2.9196 9.33828 2.9196C9.1608 2.91414 9.02007 2.76606 9.02554 2.58914C9.03102 2.41222 9.18035 2.27348 9.35704 2.27816C9.42193 2.2805 10.9684 2.33661 12.6603 3.26409C14.2239 4.12064 16.2043 5.9109 16.7586 9.57404C16.7852 9.74941 16.664 9.91308 16.4881 9.93958C16.4772 9.94114 16.4654 9.94192 16.4545 9.94269L16.4553 9.94192Z" fill="#FFD600"/>
<path d="M18.6912 10.8429C18.5286 10.8507 18.3832 10.7338 18.359 10.5701C17.753 6.56404 15.8923 3.67717 12.8306 1.98979C10.5368 0.725618 8.38595 0.642223 8.36484 0.642223C8.18658 0.636768 8.04742 0.488683 8.05289 0.310982C8.05836 0.13406 8.20847 -0.00467132 8.38439 -0.000774368C8.47742 0.0023432 10.6892 0.0833999 13.1176 1.41304C14.546 2.19555 15.7492 3.24929 16.6944 4.54619C17.8711 6.16109 18.6459 8.15556 18.9969 10.4735C19.0235 10.6488 18.9023 10.8125 18.7264 10.839C18.7147 10.8406 18.7037 10.8413 18.692 10.8421L18.6912 10.8429Z" fill="#FFD600"/>
</g>
<defs>
<clipPath id="clip0_257_826">
<rect width="19" height="19" fill="white"/>
</clipPath>
</defs>
</svg>
