<svg width="199" height="201" viewBox="0 0 199 201" fill="none" xmlns="http://www.w3.org/2000/svg">
<path d="M197.616 106.585C195.391 115.583 192.98 120.532 187.736 127.205C185.43 130.145 182.344 132.019 178.399 131.592C169.321 130.61 160.257 129.492 151.172 128.593C143.577 127.843 135.952 127.318 127.987 126.665C127.809 127.82 127.675 128.42 127.631 129.02C126.422 145.464 125.302 161.908 123.967 178.337C123.589 182.978 123.729 187.912 119.672 191.451C111.699 198.41 102.436 201.521 92.0004 200.929C87.0237 200.644 82.5662 196.91 82.0693 192.853C80.2818 178.104 78.5314 163.355 76.8997 148.591C75.9652 140.177 75.2829 131.742 74.4596 123.014C70.6993 122.759 67.1541 122.556 63.6163 122.271C48.1077 121.034 32.5844 119.887 17.1055 118.387C14.6283 118.147 11.8767 116.745 9.99281 115.036C2.27192 108.017 0.150731 98.5167 0.00239481 88.5964C-0.108857 81.1581 3.65886 77.064 10.7271 76.2392C29.3729 74.0646 48.0262 71.9876 66.7017 70.143C70.0392 69.8131 70.9218 68.9733 70.8773 65.5165C70.6771 51.1647 70.4026 36.7829 71.0479 22.4611C71.6635 8.82159 77.4338 3.07786 90.6728 0.835861C98.6013 -0.506342 106.582 -0.371372 114.11 2.26804C120.206 4.39757 126.029 7.55437 131.606 10.8836C134.966 12.8932 136.924 16.4774 136.42 20.7889C135.389 29.712 134.18 38.62 133.267 47.5505C132.659 53.5642 132.437 59.6228 132.066 65.3216C137.985 65.3216 143.28 65.2166 148.576 65.3441C159.308 65.5915 170.055 65.719 180.772 66.3713C187.67 66.7912 192.876 70.4354 195.739 76.9965C198.498 83.2951 199.299 89.9611 198.906 96.7546C198.721 99.9714 198.053 103.383 197.608 106.585" fill="#FFD600"/>
</svg>
