<svg width="47" height="50" viewBox="0 0 47 50" fill="none" xmlns="http://www.w3.org/2000/svg">
<g clip-path="url(#clip0_252_1046)">
<path d="M47.0002 25.0958C46.9343 38.6772 36.3836 49.5224 23.295 49.4655C10.4436 49.4106 -0.0562545 38.3538 0.000226808 24.9429C0.0585909 11.1812 10.8446 0.337994 23.8561 0.535963C36.5851 0.731971 47.0285 11.5085 47.0002 25.0938V25.0958ZM38.9347 38.834C45.3039 31.7405 46.1888 18.357 37.8615 9.83263C29.572 1.34744 16.2386 1.71201 8.34064 10.7186C0.732601 19.3939 1.96578 32.1423 8.05635 38.7811C8.12601 38.54 8.20508 38.3322 8.2465 38.1147C9.09372 33.6653 11.4283 30.2469 14.9358 27.638C15.4742 27.2382 15.9129 27.0343 16.6039 27.5302C21.0433 30.7173 25.9873 30.7095 30.3646 27.5596C30.952 27.1382 31.3624 27.1068 31.9348 27.5322C35.4121 30.1156 37.8032 33.4595 38.7125 37.8638C38.7747 38.1656 38.85 38.4655 38.9347 38.834Z" fill="#FFD600"/>
<path d="M23.5457 26.5583C19.2701 26.9346 15.0434 22.8027 14.9756 17.9947C14.9041 12.9827 18.5471 8.93124 23.3481 8.80776C28.0097 8.68819 31.9031 12.5966 32.0236 17.4772C32.1347 21.9619 28.9755 26.5132 23.5476 26.5583H23.5457Z" fill="#FFD600"/>
</g>
<defs>
<clipPath id="clip0_252_1046">
<rect width="47" height="48.9315" fill="white" transform="translate(0 0.534241)"/>
</clipPath>
</defs>
</svg>
