<svg width="45" height="39" viewBox="0 0 45 39" fill="none" xmlns="http://www.w3.org/2000/svg">
<path d="M40.2143 0.45192H4.78571C2.14253 0.45192 0 2.5899 0 5.22824V34.223C0 36.8614 2.14253 39 4.78571 39H40.2143C42.8568 39 45 36.8614 45 34.223V5.22824C45 2.5899 42.8568 0.451294 40.2143 0.451294V0.45192ZM42.1015 33.6663C42.1015 34.8806 41.1146 35.8644 39.8981 35.8644H5.10066C3.88416 35.8644 2.89853 34.8806 2.89853 33.6663V11.7161H42.1015V33.6657V33.6663Z" fill="white"/>
<path d="M14.23 16.1887H8.93988C8.65056 16.1887 8.41602 16.4228 8.41602 16.7116V21.992C8.41602 22.2808 8.65056 22.5149 8.93988 22.5149H14.23C14.5193 22.5149 14.7539 22.2808 14.7539 21.992V16.7116C14.7539 16.4228 14.5193 16.1887 14.23 16.1887Z" fill="white"/>
<path d="M25.1441 16.1887H19.8539C19.5646 16.1887 19.3301 16.4228 19.3301 16.7116V21.992C19.3301 22.2808 19.5646 22.5149 19.8539 22.5149H25.1441C25.4334 22.5149 25.6679 22.2808 25.6679 21.992V16.7116C25.6679 16.4228 25.4334 16.1887 25.1441 16.1887Z" fill="white"/>
<path d="M36.0601 16.1887H30.77C30.4806 16.1887 30.2461 16.4228 30.2461 16.7116V21.992C30.2461 22.2808 30.4806 22.5149 30.77 22.5149H36.0601C36.3494 22.5149 36.584 22.2808 36.584 21.992V16.7116C36.584 16.4228 36.3494 16.1887 36.0601 16.1887Z" fill="white"/>
<path d="M14.23 25.0656H8.93988C8.65056 25.0656 8.41602 25.2997 8.41602 25.5885V30.8689C8.41602 31.1577 8.65056 31.3918 8.93988 31.3918H14.23C14.5193 31.3918 14.7539 31.1577 14.7539 30.8689V25.5885C14.7539 25.2997 14.5193 25.0656 14.23 25.0656Z" fill="white"/>
<path d="M25.1441 25.0656H19.8539C19.5646 25.0656 19.3301 25.2997 19.3301 25.5885V30.8689C19.3301 31.1577 19.5646 31.3918 19.8539 31.3918H25.1441C25.4334 31.3918 25.6679 31.1577 25.6679 30.8689V25.5885C25.6679 25.2997 25.4334 25.0656 25.1441 25.0656Z" fill="white"/>
<path d="M36.0601 25.0656H30.77C30.4806 25.0656 30.2461 25.2997 30.2461 25.5885V30.8689C30.2461 31.1577 30.4806 31.3918 30.77 31.3918H36.0601C36.3494 31.3918 36.584 31.1577 36.584 30.8689V25.5885C36.584 25.2997 36.3494 25.0656 36.0601 25.0656Z" fill="white"/>
</svg>
