<svg width="34" height="34" viewBox="0 0 34 34" fill="none" xmlns="http://www.w3.org/2000/svg">
<path d="M10.7042 31.8991C12.697 32.742 14.8155 33.1693 17.001 33.1693C19.1864 33.1693 21.3049 32.742 23.2977 31.8991C25.2235 31.0845 26.9536 29.9179 28.4399 28.4316C29.9259 26.9456 31.0923 25.2162 31.9065 23.2913C32.7488 21.3001 33.1757 19.1835 33.1757 17C33.1757 14.8165 32.7488 12.6999 31.9065 10.7087C31.0923 8.78374 29.9259 7.05409 28.4399 5.56841C26.9536 4.08207 25.2235 2.91551 23.2977 2.10083C21.3049 1.25802 19.1864 0.830658 17.001 0.830658C14.8155 0.830658 12.697 1.25802 10.7042 2.10083C8.77842 2.91551 7.04826 4.08207 5.56196 5.56841C4.076 7.05442 2.90956 8.78374 2.09537 10.7087C1.25309 12.6999 0.826172 14.8165 0.826172 17C0.826172 19.1835 1.25309 21.3001 2.09537 23.2913C2.90956 25.2162 4.076 26.9459 5.56196 28.4316C7.04826 29.9179 8.77842 31.0845 10.7042 31.8991ZM14.2458 19.7025C14.2617 20.5351 14.4285 21.1498 14.7457 21.5461C15.063 21.9423 15.5708 22.1648 16.2697 22.2128V17.965C14.3502 17.3777 12.9528 16.6537 12.0778 15.7927C11.2025 14.932 10.7647 13.8538 10.7647 12.5585C10.7647 11.1023 11.2504 9.93971 12.2222 9.07074C13.1937 8.20178 14.5428 7.72344 16.2697 7.63472V6.23478H17.7755V7.63472C19.4779 7.65889 20.801 8.10545 21.7447 8.97441C22.6884 9.84338 23.1722 11.0622 23.1963 12.631H19.3537C19.3537 12.0275 19.2211 11.5671 18.9561 11.2493C18.6911 10.9315 18.2976 10.7607 17.7755 10.7365V14.5378C19.8714 15.27 21.3491 16.0744 22.2086 16.9513C23.0677 17.8282 23.4976 18.9587 23.4976 20.3424C23.4976 21.7262 22.9795 22.9129 21.9436 23.8302C20.9077 24.7475 19.5182 25.2662 17.7755 25.3871V27.7523H16.2697V25.3871C14.3343 25.3387 12.8768 24.8422 11.8971 23.8967C10.9173 22.9513 10.4111 21.5537 10.3794 19.7032H14.2461L14.2458 19.7025Z" fill="white"/>
</svg>
